<svg id="图层_1" data-name="图层 1" xmlns="http://www.w3.org/2000/svg" viewBox="0 0 636.61 636.54">
  <defs>
    <style>
      .cls-1 { fill: #e9361d; }
      .cls-2 { fill: #fff; }
    </style>
  </defs>
  <polygon class="cls-1" points="28.5 495.12 205.24 318.38 28.28 141.42 141.42 28.28 318.38 205.24 495.19 28.43 608.33 141.56 431.51 318.38 608.11 494.98 494.98 608.11 318.38 431.51 141.64 608.25 28.5 495.12"/>
  <path class="cls-2" d="M143,58.23,291.68,206.9,320,235.18l28.29-28.28L496.78,58.37l84.85,84.85L433.1,291.75,404.82,320l28.28,28.28L581.42,496.63l-84.86,84.86L348.25,433.17,320,404.89l-28.28,28.28L143.22,581.63,58.37,496.78,206.83,348.32,235.11,320l-28.28-28.29L58.16,143.08,143,58.23m0-56.57L1.59,143.08l177,177L1.8,496.78,143.22,638.2,320,461.46l176.6,176.6L638,496.63,461.39,320,638.2,143.22,496.78,1.8,320,178.61,143,1.66Z" transform="translate(-1.59 -1.66)"/>
</svg>
